<?xml version="1.0" standalone="no"?><!DOCTYPE svg PUBLIC "-//W3C//DTD SVG 1.1//EN" "http://www.w3.org/Graphics/SVG/1.1/DTD/svg11.dtd"><svg t="1579796841975" class="icon" viewBox="0 0 1024 1024" version="1.1" xmlns="http://www.w3.org/2000/svg" p-id="8816" xmlns:xlink="http://www.w3.org/1999/xlink" width="200" height="200"><defs><style type="text/css"></style></defs><path d="M901.76 938.24H158.72c-15.36 0-30.72-7.68-40.32-19.2-9.6-13.44-13.44-28.8-9.6-44.16 38.4-195.84 197.76-341.76 389.76-357.12 7.68-1.92 13.44-1.92 23.04-1.92v19.2c-7.68 0-13.44 0-21.12 1.92-184.32 13.44-337.92 153.6-374.4 341.76-1.92 9.6 0 21.12 7.68 28.8 5.76 7.68 15.36 11.52 24.96 11.52h743.04c9.6 0 19.2-3.84 24.96-11.52 5.76-7.68 9.6-17.28 7.68-28.8-23.04-122.88-97.92-228.48-203.52-288-11.52-7.68-24.96-13.44-36.48-19.2l7.68-17.28c13.44 5.76 26.88 13.44 38.4 19.2 111.36 63.36 188.16 172.8 213.12 301.44 3.84 15.36 0 30.72-11.52 44.16-9.6 11.52-24.96 19.2-40.32 19.2z m-374.4-403.2h-3.84v-19.2h5.76l-1.92 19.2z" fill="#D2B772" p-id="8817"></path><path d="M535.04 535.04c-120.96 0-220.8-99.84-220.8-220.8S414.08 93.44 535.04 93.44s220.8 99.84 220.8 220.8-99.84 220.8-220.8 220.8z m0-422.4c-111.36 0-201.6 90.24-201.6 201.6s90.24 201.6 201.6 201.6 201.6-90.24 201.6-201.6S646.4 112.64 535.04 112.64z" fill="#D2B772" p-id="8818"></path></svg>