<?xml version="1.0" standalone="no"?><!DOCTYPE svg PUBLIC "-//W3C//DTD SVG 1.1//EN" "http://www.w3.org/Graphics/SVG/1.1/DTD/svg11.dtd"><svg t="1580100062964" class="icon" viewBox="0 0 1024 1024" version="1.1" xmlns="http://www.w3.org/2000/svg" p-id="5385" xmlns:xlink="http://www.w3.org/1999/xlink" width="200" height="200"><defs><style type="text/css"></style></defs><path d="M921.074 941.787H120.532c-20.713 0-41.426-10.357-54.889-25.891l-1.035-1.036c-13.464-18.641-17.606-40.39-12.428-60.066 42.46-215.411 220.59-379.041 432.894-396.647 5.178-1.035 9.32-2.071 13.463-2.071h39.354l-5.178 51.781H512c-8.285 0-12.428 0-18.641 2.072h-3.107C298.66 523.392 138.137 670.45 100.855 866.186c-1.036 5.178-1.036 12.427 4.142 17.605l1.036 2.072c3.107 4.142 8.285 6.213 14.499 6.213H922.11c6.214 0 11.392-2.07 14.499-6.213 5.178-6.214 6.213-12.428 5.178-19.677-23.82-128.419-101.492-237.16-211.269-299.298l-1.036-1.035c-8.285-5.178-18.64-10.357-27.962-15.535-3.106-2.07-6.213-3.107-9.32-5.178l-14.5-6.214 20.714-46.603 14.498 6.214c10.357 4.142 20.713 10.356 30.034 14.499l12.427 6.213c124.276 70.423 210.233 192.628 238.195 335.545 5.178 20.712 0 42.46-15.534 61.102-14.5 16.57-36.247 25.89-56.96 25.89z" fill="#F53333" p-id="5386"></path><path d="M526.499 492.323c-130.49 0-238.195-107.706-238.195-238.195S396.009 15.933 526.499 15.933s238.195 107.706 238.195 238.195-108.741 238.195-238.195 238.195z m0-439.107c-111.848 0-200.913 90.1-200.913 200.912S415.686 455.04 526.5 455.04s200.912-90.1 200.912-200.912S637.311 53.216 526.5 53.216z" fill="#F53333" p-id="5387"></path><path d="M526.499 497.501c-134.632 0-243.373-108.741-243.373-243.373S391.866 10.755 526.499 10.755s243.373 108.741 243.373 243.373-109.777 243.373-243.373 243.373z m0-476.39c-128.418 0-233.017 104.599-233.017 233.017S398.08 487.145 526.499 487.145s233.017-104.599 233.017-233.017S654.917 21.111 526.499 21.111z m0 439.107c-113.92 0-206.09-92.17-206.09-206.09s92.17-206.09 206.09-206.09 206.09 92.17 206.09 206.09-93.206 206.09-206.09 206.09z m0-401.824c-107.706 0-195.734 88.028-195.734 195.734s88.028 195.734 195.734 195.734 195.734-88.028 195.734-195.734S634.204 58.394 526.499 58.394zM208.56 769.872c-2.071 0-5.178-1.036-7.25-2.071-7.249-4.143-10.355-13.463-6.213-20.713 91.136-177.093 288.941-210.233 297.226-211.268 8.285-1.036 16.57 4.142 17.606 12.427 1.035 8.285-4.143 16.57-12.428 17.606-2.071 0-190.556 32.104-274.442 194.698-3.107 6.214-8.285 9.321-14.499 9.321z m-35.211 90.1c-8.285 0-15.535-7.25-15.535-15.535 0-30.033 19.677-62.137 22.784-65.244 4.143-7.25 14.499-9.321 21.748-5.178 7.25 4.142 9.321 14.498 5.179 21.748-5.179 7.25-17.606 31.069-17.606 48.674-1.036 8.285-7.25 15.535-16.57 15.535z" fill="#F53333" p-id="5388"></path></svg>